<svg version="1.1" id="Layer_1" xmlns="http://www.w3.org/2000/svg" xmlns:xlink="http://www.w3.org/1999/xlink" x="0px" y="0px"
	 width="100%" viewBox="0 0 128 128" enable-background="new 0 0 128 128" xml:space="preserve">
<path fill="#011A3D" opacity="1.000000" stroke="none" 
	d="
M69.000000,129.000000 
	C46.000000,129.000000 23.500000,129.000000 1.000000,129.000000 
	C1.000000,86.333336 1.000000,43.666668 1.000000,1.000000 
	C43.666668,1.000000 86.333336,1.000000 129.000000,1.000000 
	C129.000000,43.666668 129.000000,86.333336 129.000000,129.000000 
	C109.166664,129.000000 89.333336,129.000000 69.000000,129.000000 
M106.476303,26.998365 
	C106.304207,27.004820 106.132118,27.011276 105.437309,26.795971 
	C104.957458,26.517395 104.477615,26.238817 103.991203,26.009769 
	C103.991203,26.009769 104.040688,26.002857 103.783264,25.324471 
	C99.319122,21.098597 94.024918,20.582209 88.453682,23.560381 
	C87.049667,24.310913 85.136002,24.975445 83.703857,24.636024 
	C80.063133,23.773174 76.562355,22.319792 72.078102,20.966951 
	C66.712318,21.303303 61.346535,21.639654 55.202194,21.954664 
	C51.479153,23.365673 47.756111,24.776680 43.398815,26.402061 
	C38.554070,30.876511 33.709320,35.350960 28.291901,40.205990 
	C23.970264,45.339912 21.213991,51.121529 20.410757,58.577053 
	C19.285563,67.591576 19.771622,76.323753 24.944260,84.930862 
	C27.956884,88.956680 30.969509,92.982498 34.305668,97.601250 
	C40.876621,101.338509 47.123486,105.974434 54.130871,108.501526 
	C58.914436,110.226631 64.759850,109.007339 70.970963,109.063499 
	C83.216377,108.350502 92.449745,102.168983 100.625778,92.695435 
	C102.144531,90.469963 103.663284,88.244492 105.777687,85.993828 
	C106.185455,85.328735 106.593224,84.663643 107.025322,83.337181 
	C107.344856,82.556343 107.664383,81.775505 108.685539,81.021912 
	C109.950256,81.459534 111.214973,81.897163 113.145973,82.565346 
	C111.945076,78.913155 110.976189,75.966583 110.004219,72.997856 
	C110.004219,72.997856 110.020767,73.005066 110.774788,72.765404 
	C112.835777,67.782272 112.908585,62.876247 110.114677,57.378616 
	C110.075790,56.910309 110.036903,56.442005 109.837616,55.629650 
	C109.707047,55.410488 109.537079,55.228039 109.148712,54.326454 
	C109.098099,53.551899 109.047493,52.777344 109.514175,51.431557 
	C110.007729,48.393974 110.875587,45.351086 110.832611,42.321117 
	C110.811966,40.865768 109.070526,39.434834 108.067902,37.477417 
	C108.094017,37.307083 108.120140,37.136745 108.624268,36.381622 
	C108.761696,34.590519 108.899117,32.799416 109.715691,30.900177 
	C110.743095,29.976727 111.770493,29.053276 113.695793,27.322765 
	C110.833351,27.160181 109.413795,27.079550 107.801292,26.717653 
	C107.534225,26.809046 107.267151,26.900438 106.999695,26.999353 
	C106.999695,26.999353 106.992737,26.997627 106.476303,26.998365 
z"/>
<path fill="#021C43" opacity="1.000000" stroke="none" 
	d="
M110.007309,73.020020 
	C110.976189,75.966583 111.945076,78.913155 113.145973,82.565346 
	C111.214973,81.897163 109.950256,81.459534 108.332886,80.649826 
	C107.726723,79.343628 107.473221,78.409508 107.118683,77.103111 
	C104.170258,82.441467 101.552315,87.181465 98.676231,92.075012 
	C97.606972,92.802719 96.795845,93.376862 95.985321,93.519661 
	C95.951843,92.221672 95.917763,91.355042 95.852692,90.349060 
	C95.821716,90.209717 96.025917,90.010185 96.231316,89.865349 
	C96.610252,89.437424 96.783798,89.154335 97.052719,88.613144 
	C97.414673,87.902779 97.681252,87.450500 98.242554,86.797256 
	C99.526161,84.738350 100.573158,82.908699 101.493614,81.017456 
	C104.973953,73.866539 104.916046,66.315056 103.952354,58.286049 
	C103.977760,56.260929 103.987358,54.618847 104.344261,52.981064 
	C105.154922,52.969574 105.618279,52.953789 106.068481,52.967850 
	C106.055336,52.997696 106.037720,52.934895 106.121552,53.140205 
	C106.356911,53.606041 106.562363,53.813026 106.867401,54.307896 
	C107.234268,55.474228 107.555489,56.299126 107.896759,57.579521 
	C107.929840,62.339001 107.849091,66.647316 108.047684,70.942726 
	C108.081024,71.663818 109.323517,72.329002 110.007309,73.020020 
z"/>
<path fill="#02204C" opacity="1.000000" stroke="none" 
	d="
M109.036545,31.008312 
	C108.899117,32.799416 108.761696,34.590519 108.071854,36.800159 
	C106.339447,38.468361 105.159447,39.718029 103.975616,40.642860 
	C103.672478,39.549072 103.373184,38.780125 102.998390,37.587437 
	C102.299713,34.414761 101.676552,31.665817 100.872643,28.561428 
	C97.453651,27.748026 94.215416,27.290070 90.774620,26.632542 
	C90.030220,26.282471 89.488380,26.131968 89.192963,25.687437 
	C94.454926,22.040390 99.205559,25.033859 104.040688,26.002857 
	C104.040688,26.002857 103.991203,26.009769 103.889587,26.358040 
	C105.188675,28.134312 106.589378,29.562309 108.251740,30.991781 
	C108.687790,30.998274 108.862167,31.003294 109.036545,31.008312 
z"/>
<path fill="#092E68" opacity="1.000000" stroke="none" 
	d="
M70.130508,109.104500 
	C64.759850,109.007339 58.914436,110.226631 54.130871,108.501526 
	C47.123486,105.974434 40.876621,101.338509 34.493149,97.300613 
	C35.145893,96.995071 35.611160,96.990158 36.416008,97.035477 
	C43.181656,100.342667 49.607716,103.599625 56.445450,106.898033 
	C58.238113,106.954826 59.619095,106.970177 61.295380,107.251175 
	C64.053513,107.664780 66.516342,107.812744 69.124954,108.192642 
	C69.557335,108.651207 69.843918,108.877853 70.130508,109.104500 
z"/>
<path fill="#0C2C6F" opacity="1.000000" stroke="none" 
	d="
M70.550735,109.084000 
	C69.843918,108.877853 69.557335,108.651207 69.132423,107.951202 
	C68.994102,107.477837 69.001053,106.993950 69.401550,106.990646 
	C71.534233,106.657196 73.266426,106.327042 75.383713,105.989548 
	C79.512047,104.303116 83.255272,102.624031 87.339020,100.901283 
	C89.789940,99.241447 91.900330,97.625267 94.213989,95.887650 
	C94.669548,95.562035 94.849014,95.306671 95.169472,94.870331 
	C95.583771,94.477371 95.784248,94.214195 95.984718,93.951012 
	C96.795845,93.376862 97.606972,92.802719 98.820900,92.302948 
	C99.502579,92.598625 99.781456,92.819916 100.060333,93.041199 
	C92.449745,102.168983 83.216377,108.350502 70.550735,109.084000 
z"/>
<path fill="#256DB5" opacity="1.000000" stroke="none" 
	d="
M103.911972,25.663664 
	C99.205559,25.033859 94.454926,22.040390 88.893578,25.843405 
	C86.911911,26.568184 85.314995,27.385614 84.070351,27.016191 
	C80.308525,25.899641 76.683426,24.322454 73.003311,22.621031 
	C73.002914,21.912436 73.004242,21.507618 73.005562,21.102798 
	C76.562355,22.319792 80.063133,23.773174 83.703857,24.636024 
	C85.136002,24.975445 87.049667,24.310913 88.453682,23.560381 
	C94.024918,20.582209 99.319122,21.098597 103.911972,25.663664 
z"/>
<path fill="#124083" opacity="1.000000" stroke="none" 
	d="
M24.908005,84.241028 
	C19.771622,76.323753 19.285563,67.591576 20.706757,58.592461 
	C21.318111,59.398979 21.633469,60.190090 21.973875,61.420723 
	C22.316031,64.603470 22.633137,67.346703 22.961185,70.446899 
	C23.013754,71.516823 23.055376,72.229797 23.098351,73.238983 
	C23.380199,74.031685 23.660702,74.528160 23.956345,75.351776 
	C24.011759,76.113701 24.052031,76.548477 24.096262,77.275955 
	C24.403332,78.046356 24.706444,78.524048 25.000320,79.331894 
	C24.999210,80.102119 25.007339,80.542206 25.010773,81.387604 
	C24.973385,82.608963 24.940695,83.424995 24.908005,84.241028 
z"/>
<path fill="#021C43" opacity="1.000000" stroke="none" 
	d="
M108.108368,37.992844 
	C109.070526,39.434834 110.811966,40.865768 110.832611,42.321117 
	C110.875587,45.351086 110.007729,48.393974 108.995880,51.483475 
	C107.727699,48.685734 106.977821,45.836075 106.387802,42.860844 
	C106.746750,42.542950 106.895454,42.317394 107.029030,41.786396 
	C107.093063,41.333477 107.121826,41.152767 107.334061,40.825333 
	C107.741043,40.443462 107.884521,40.166779 107.951096,39.537361 
	C108.005630,38.815063 108.056999,38.403950 108.108368,37.992844 
z"/>
<path fill="#134F98" opacity="1.000000" stroke="none" 
	d="
M21.948824,60.981205 
	C21.633469,60.190090 21.318111,59.398979 20.979164,58.272266 
	C21.213991,51.121529 23.970264,45.339912 28.706184,40.235176 
	C29.359255,40.497540 29.598040,40.730721 29.735916,41.282043 
	C28.395052,44.011639 27.155098,46.423088 25.678249,49.068268 
	C25.005482,50.539173 24.569609,51.776356 24.058933,53.344765 
	C23.937136,54.126492 23.890142,54.576988 23.676506,55.295326 
	C23.378176,56.384560 23.246490,57.205952 23.030527,58.334457 
	C22.613775,59.421452 22.281300,60.201328 21.948824,60.981205 
z"/>
<path fill="#144D9F" opacity="1.000000" stroke="none" 
	d="
M106.227936,42.986420 
	C106.977821,45.836075 107.727699,48.685734 108.737228,51.769089 
	C109.047493,52.777344 109.098099,53.551899 109.171799,54.891830 
	C109.194878,55.457211 109.145462,55.852554 108.976685,56.103699 
	C108.497505,56.611233 108.187103,56.867626 107.876709,57.124023 
	C107.555489,56.299126 107.234268,55.474228 106.821533,54.083458 
	C106.575554,53.232777 106.344788,53.038544 106.037720,52.934895 
	C106.037720,52.934895 106.055336,52.997696 106.039352,52.608437 
	C105.008110,50.154774 103.992851,48.090370 102.946045,45.777069 
	C102.884872,45.363556 102.855255,45.198936 102.795700,44.771339 
	C102.554321,44.027554 102.342873,43.546753 102.324524,42.938019 
	C102.743317,42.589214 102.904282,42.328400 103.219559,41.913910 
	C103.715508,41.595360 103.893204,41.325264 103.983704,40.992779 
	C103.995743,40.995667 103.979454,40.967697 103.979454,40.967697 
	C105.159447,39.718029 106.339447,38.468361 107.832855,37.092552 
	C108.120140,37.136745 108.094017,37.307083 108.088135,37.735130 
	C108.056999,38.403950 108.005630,38.815063 107.749603,39.672661 
	C107.281792,40.342598 107.150345,40.626900 107.150597,40.972057 
	C107.121826,41.152767 107.093063,41.333477 106.840302,41.884178 
	C106.380211,42.441685 106.250755,42.685772 106.227936,42.986420 
z"/>
<path fill="#1B5AA7" opacity="1.000000" stroke="none" 
	d="
M29.836823,40.963902 
	C29.598040,40.730721 29.359255,40.497540 28.992519,40.044884 
	C33.709320,35.350960 38.554070,30.876511 43.714218,26.635525 
	C44.042152,27.324066 44.054676,27.779144 43.851738,28.478254 
	C39.036457,32.802826 34.436638,36.883362 29.836823,40.963902 
z"/>
<path fill="#0D3277" opacity="1.000000" stroke="none" 
	d="
M24.926132,84.585945 
	C24.940695,83.424995 24.973385,82.608963 25.271544,81.605644 
	C29.050150,86.607323 32.563286,91.796288 36.076424,96.985252 
	C35.611160,96.990158 35.145893,96.995071 34.331383,97.004150 
	C30.969509,92.982498 27.956884,88.956680 24.926132,84.585945 
z"/>
<path fill="#0F3377" opacity="1.000000" stroke="none" 
	d="
M100.343056,92.868317 
	C99.781456,92.819916 99.502579,92.598625 99.079041,92.149399 
	C101.552315,87.181465 104.170258,82.441467 107.118683,77.103111 
	C107.473221,78.409508 107.726723,79.343628 107.982071,80.636215 
	C107.664383,81.775505 107.344856,82.556343 106.758728,83.793213 
	C106.055435,84.839172 105.618736,85.429100 105.182037,86.019028 
	C103.663284,88.244492 102.144531,90.469963 100.343056,92.868317 
z"/>
<path fill="#1B6BB8" opacity="1.000000" stroke="none" 
	d="
M72.541832,21.034874 
	C73.004242,21.507618 73.002914,21.912436 72.537422,22.673330 
	C66.738274,23.138426 61.403294,23.247444 56.047974,23.011253 
	C56.012001,22.436029 55.996376,22.206018 55.980751,21.976007 
	C61.346535,21.639654 66.712318,21.303303 72.541832,21.034874 
z"/>
<path fill="#194283" opacity="1.000000" stroke="none" 
	d="
M107.896759,57.579521 
	C108.187103,56.867626 108.497505,56.611233 109.188232,56.141319 
	C109.568558,55.927803 109.998016,55.973698 109.998016,55.973698 
	C110.036903,56.442005 110.075790,56.910309 110.106667,58.182808 
	C110.072693,63.659691 110.046730,68.332375 110.020767,73.005066 
	C110.020767,73.005066 110.004219,72.997856 110.005768,73.008942 
	C109.323517,72.329002 108.081024,71.663818 108.047684,70.942726 
	C107.849091,66.647316 107.929840,62.339001 107.896759,57.579521 
z"/>
<path fill="#021C43" opacity="1.000000" stroke="none" 
	d="
M110.397781,72.885239 
	C110.046730,68.332375 110.072693,63.659691 110.151917,58.532448 
	C112.908585,62.876247 112.835777,67.782272 110.397781,72.885239 
z"/>
<path fill="#2569AB" opacity="1.000000" stroke="none" 
	d="
M55.591473,21.965336 
	C55.996376,22.206018 56.012001,22.436029 55.778145,23.227701 
	C52.363152,24.978725 49.197639,26.168089 45.764687,27.400784 
	C45.020561,27.707485 44.543880,27.970856 44.067200,28.234222 
	C44.054676,27.779144 44.042152,27.324066 44.031349,26.528337 
	C47.756111,24.776680 51.479153,23.365673 55.591473,21.965336 
z"/>
<path fill="#021C43" opacity="1.000000" stroke="none" 
	d="
M109.376114,30.954245 
	C108.862167,31.003294 108.687790,30.998274 108.148483,30.690708 
	C107.518761,29.597500 107.253960,28.806841 106.994202,27.761559 
	C106.997063,27.337164 106.994896,27.167395 106.992737,26.997627 
	C106.992737,26.997627 106.999695,26.999353 107.248405,26.998550 
	C107.497116,26.997749 107.994232,26.998920 107.994232,26.998920 
	C109.413795,27.079550 110.833351,27.160181 113.695793,27.322765 
	C111.770493,29.053276 110.743095,29.976727 109.376114,30.954245 
z"/>
<path fill="#256DB5" opacity="1.000000" stroke="none" 
	d="
M106.989166,28.016182 
	C107.253960,28.806841 107.518761,29.597500 107.886818,30.689232 
	C106.589378,29.562309 105.188675,28.134312 103.892868,26.333277 
	C104.477615,26.238817 104.957458,26.517395 105.810776,27.128094 
	C106.391304,27.734205 106.659615,27.919527 106.989166,28.016182 
z"/>
<path fill="#021C43" opacity="1.000000" stroke="none" 
	d="
M105.479858,86.006424 
	C105.618736,85.429100 106.055435,84.839172 106.746567,84.123901 
	C106.593224,84.663643 106.185455,85.328735 105.479858,86.006424 
z"/>
<path fill="#02204C" opacity="1.000000" stroke="none" 
	d="
M107.897766,26.858288 
	C107.994232,26.998920 107.497116,26.997749 107.248596,26.994789 
	C107.267151,26.900438 107.534225,26.809046 107.897766,26.858288 
z"/>
<path fill="#02204C" opacity="1.000000" stroke="none" 
	d="
M106.994202,27.761559 
	C106.659615,27.919527 106.391304,27.734205 106.072136,27.238976 
	C106.132118,27.011276 106.304207,27.004820 106.734520,26.997997 
	C106.994896,27.167395 106.997063,27.337164 106.994202,27.761559 
z"/>
<path fill="#021C43" opacity="1.000000" stroke="none" 
	d="
M109.917816,55.801674 
	C109.998016,55.973698 109.568558,55.927803 109.357010,55.890179 
	C109.145462,55.852554 109.194878,55.457211 109.261299,55.269760 
	C109.537079,55.228039 109.707047,55.410488 109.917816,55.801674 
z"/>
<path fill="#0F2542" opacity="1.000000" stroke="none" 
	d="
M102.825638,45.034317 
	C102.855255,45.198936 102.884872,45.363556 102.950867,46.172096 
	C103.323814,48.869602 103.660385,50.923183 103.996948,52.976765 
	C103.987358,54.618847 103.977760,56.260929 103.816757,58.486969 
	C103.108391,59.694759 102.551422,60.318596 101.602310,60.958176 
	C100.425507,60.967560 99.640854,60.961197 98.911758,60.583466 
	C99.875237,57.261021 100.783142,54.309944 101.691055,51.358871 
	C98.496964,50.626621 95.302872,49.894367 91.717743,49.200912 
	C85.163109,49.239712 78.999519,49.239712 72.208603,49.239712 
	C74.553490,50.785595 76.285835,51.927654 78.093658,53.418411 
	C79.508469,57.844025 80.847794,61.920944 82.116577,66.383209 
	C81.698875,68.516075 81.351723,70.263596 80.792206,72.105576 
	C80.579834,72.200027 80.133949,72.331482 80.097740,71.896584 
	C79.733727,69.317703 79.405914,67.173721 78.973671,64.816895 
	C78.869232,64.604042 78.686852,64.166328 78.821518,63.779366 
	C77.215309,55.763355 71.817047,50.946171 65.054436,51.007469 
	C63.055458,51.025589 61.056919,51.091335 59.038010,50.886345 
	C59.017838,50.637428 58.988251,50.138844 59.355026,50.066238 
	C62.171455,48.783005 64.621101,47.572380 67.459061,46.293427 
	C68.895828,46.148285 69.944290,46.071472 71.413712,46.160583 
	C74.224602,46.212051 76.614555,46.097595 79.417297,46.046326 
	C81.218796,46.065292 82.607491,46.021069 84.246712,46.101433 
	C84.665466,46.145447 84.833694,46.064865 85.413956,46.042236 
	C87.209152,46.052513 88.592331,46.004833 90.306129,46.106964 
	C91.326691,46.176903 92.016617,46.097027 93.025383,45.980236 
	C92.121338,45.157818 91.509056,44.600822 91.352875,44.031708 
	C94.536835,44.021923 97.264694,44.024258 100.208191,44.253986 
	C101.224442,44.665695 102.025040,44.850006 102.825638,45.034317 
z"/>
<path fill="#ACCEEC" opacity="1.000000" stroke="none" 
	d="
M101.994461,60.942436 
	C102.551422,60.318596 103.108391,59.694759 103.800949,58.870003 
	C104.916046,66.315056 104.973953,73.866539 101.493614,81.017456 
	C100.573158,82.908699 99.526161,84.738350 98.056992,86.590363 
	C97.416588,85.380165 97.256470,84.175903 97.162918,82.625961 
	C97.842957,80.531288 98.456429,78.782280 99.289459,76.941521 
	C99.694603,76.090988 99.880188,75.332199 100.358238,74.260994 
	C101.112633,69.901230 101.574570,65.853889 102.090469,61.587387 
	C102.144440,61.368221 101.994461,60.942436 101.994461,60.942436 
z"/>
<path fill="#85B5E1" opacity="1.000000" stroke="none" 
	d="
M97.096344,82.971634 
	C97.256470,84.175903 97.416588,85.380165 97.762268,86.791328 
	C97.681252,87.450500 97.414673,87.902779 96.794952,88.706963 
	C96.303177,89.375977 96.164543,89.693077 96.025909,90.010185 
	C96.025917,90.010185 95.821716,90.209717 95.564545,90.562782 
	C92.894821,92.966606 90.482269,95.017372 87.792450,96.934586 
	C86.971962,96.510902 86.428741,96.220757 86.063629,95.647781 
	C89.859932,91.233849 93.478134,87.102737 97.096344,82.971634 
z"/>
<path fill="#011839" opacity="1.000000" stroke="none" 
	d="
M88.069717,97.068130 
	C90.482269,95.017372 92.894821,92.966606 95.595520,90.702126 
	C95.917763,91.355042 95.951843,92.221672 95.985321,93.519661 
	C95.784248,94.214195 95.583771,94.477371 94.971680,94.996948 
	C94.312973,95.458748 94.129860,95.710655 94.010719,96.009079 
	C91.900330,97.625267 89.789940,99.241447 87.301987,100.611244 
	C86.595261,99.903069 86.266098,99.441277 86.069153,98.707794 
	C86.824150,97.980110 87.446938,97.524124 88.069717,97.068130 
z"/>
<path fill="#02204C" opacity="1.000000" stroke="none" 
	d="
M104.344254,52.981064 
	C103.660385,50.923183 103.323814,48.869602 102.982422,46.420994 
	C103.992851,48.090370 105.008110,50.154774 106.052505,52.578590 
	C105.618279,52.953789 105.154922,52.969574 104.344254,52.981064 
z"/>
<path fill="#02204C" opacity="1.000000" stroke="none" 
	d="
M106.121552,53.140205 
	C106.344788,53.038544 106.575554,53.232777 106.775879,53.742027 
	C106.562363,53.813026 106.356911,53.606041 106.121552,53.140205 
z"/>
<path fill="#011839" opacity="1.000000" stroke="none" 
	d="
M96.231308,89.865349 
	C96.164543,89.693077 96.303177,89.375977 96.699570,88.965057 
	C96.783798,89.154335 96.610252,89.437424 96.231308,89.865349 
z"/>
<path fill="#041E42" opacity="1.000000" stroke="none" 
	d="
M46.032131,27.357452 
	C49.197639,26.168089 52.363152,24.978725 55.798489,23.572914 
	C61.403294,23.247444 66.738274,23.138426 72.539139,22.977106 
	C76.683426,24.322454 80.308525,25.899641 84.070351,27.016191 
	C85.314995,27.385614 86.911911,26.568184 88.647148,26.137434 
	C89.488380,26.131968 90.030220,26.282471 90.470924,26.802122 
	C89.640915,28.775446 88.912048,30.379618 88.028709,32.314293 
	C87.538292,33.763332 87.202354,34.881878 86.679840,36.213566 
	C86.311119,37.624142 86.128952,38.821575 85.599266,40.008068 
	C84.793472,39.939926 84.335205,39.882721 83.916756,39.512085 
	C83.948563,38.779102 83.940544,38.359550 83.993607,37.540016 
	C83.696045,35.406601 83.337418,33.673168 82.872086,31.590668 
	C81.329628,30.153580 80.050903,28.622730 78.432793,28.048929 
	C67.375717,24.127970 56.591343,25.573784 46.031498,29.787603 
	C46.024845,28.745230 46.028488,28.051340 46.032131,27.357452 
z"/>
<path fill="#EFD15A" opacity="1.000000" stroke="none" 
	d="
M88.183182,31.983789 
	C88.912048,30.379618 89.640915,28.775446 90.673477,27.001692 
	C94.215416,27.290070 97.453651,27.748026 100.818527,28.873598 
	C100.596237,30.046747 100.247322,30.552280 99.486916,31.020279 
	C95.992020,31.320145 92.908615,31.657547 89.551529,31.995209 
	C88.912949,31.991573 88.548065,31.987680 88.183182,31.983789 
z"/>
<path fill="#0C1C33" opacity="1.000000" stroke="none" 
	d="
M85.946793,40.019005 
	C86.128952,38.821575 86.311119,37.624142 86.840271,36.532349 
	C90.633247,42.376461 92.292374,43.049362 98.382355,41.083939 
	C100.183495,40.092922 101.628700,39.052048 103.073898,38.011173 
	C103.373184,38.780125 103.672478,39.549072 103.975616,40.642860 
	C103.979454,40.967697 103.995743,40.995667 103.774384,41.116623 
	C103.292313,41.447399 103.108154,41.710754 103.000526,42.027641 
	C102.904282,42.328400 102.743317,42.589214 102.013733,42.947304 
	C101.004074,43.398537 100.498306,43.712563 99.992546,44.026588 
	C97.264694,44.024258 94.536835,44.021923 91.129150,44.003906 
	C90.449326,43.988224 89.998604,44.001072 89.987442,43.912056 
	C89.976288,43.823040 90.058205,43.663399 89.939789,43.489750 
	C89.613586,43.106529 89.362305,42.994450 88.747246,42.949272 
	C87.600235,41.952114 86.773514,40.985558 85.946793,40.019005 
z"/>
<path fill="#DCB65B" opacity="1.000000" stroke="none" 
	d="
M102.998390,37.587437 
	C101.628700,39.052048 100.183495,40.092922 98.462006,40.844391 
	C97.790108,39.752979 97.394508,38.950974 97.368065,38.075401 
	C102.506180,36.947201 98.066719,33.026619 99.898407,31.057814 
	C100.247322,30.552280 100.596237,30.046747 100.999268,29.229046 
	C101.676552,31.665817 102.299713,34.414761 102.998390,37.587437 
z"/>
<path fill="#021C44" opacity="1.000000" stroke="none" 
	d="
M36.416008,97.035477 
	C32.563286,91.796288 29.050150,86.607323 25.276241,81.200317 
	C25.007339,80.542206 24.999210,80.102119 25.194721,79.150269 
	C24.963009,78.086746 24.527657,77.535004 24.092304,76.983253 
	C24.052031,76.548477 24.011759,76.113701 24.177956,75.221954 
	C24.592649,74.497711 24.800875,74.230453 25.217819,73.968536 
	C25.426537,73.973869 25.843473,73.996872 25.985096,74.326591 
	C26.821632,76.092438 27.516548,77.528557 28.196430,79.313240 
	C29.756552,81.439774 31.331705,83.217758 33.028996,85.152420 
	C33.151131,85.309113 33.491081,85.514793 33.577934,85.835663 
	C34.859524,87.740082 36.054260,89.323647 37.153748,91.261215 
	C41.067375,97.640785 46.348423,101.334892 54.163929,100.939278 
	C54.611740,101.337692 54.822098,101.616219 55.068329,102.259384 
	C55.414062,104.034874 55.723919,105.445732 56.033775,106.856590 
	C49.607716,103.599625 43.181656,100.342667 36.416008,97.035477 
z"/>
<path fill="#031C3A" opacity="1.000000" stroke="none" 
	d="
M56.445450,106.898033 
	C55.723919,105.445732 55.414062,104.034874 55.394676,102.329414 
	C57.585003,104.864281 59.296181,103.081772 61.411758,101.899994 
	C69.352684,105.445946 69.788437,105.332588 74.995300,98.427246 
	C75.808510,98.181755 76.389534,98.119217 77.054092,98.367943 
	C76.468575,99.712959 75.799522,100.746704 75.097923,102.201248 
	C75.043121,103.746986 75.020866,104.871941 74.998611,105.996887 
	C73.266426,106.327042 71.534233,106.657196 69.112755,106.734894 
	C65.949005,106.650131 63.474541,106.817833 61.000080,106.985527 
	C59.619095,106.970177 58.238113,106.954826 56.445450,106.898033 
z"/>
<path fill="#021C44" opacity="1.000000" stroke="none" 
	d="
M61.295380,107.251175 
	C63.474541,106.817833 65.949005,106.650131 68.712257,106.738190 
	C69.001053,106.993950 68.994102,107.477837 68.986633,107.719276 
	C66.516342,107.812744 64.053513,107.664780 61.295380,107.251175 
z"/>
<path fill="#021C44" opacity="1.000000" stroke="none" 
	d="
M75.383713,105.989548 
	C75.020866,104.871941 75.043121,103.746986 75.389824,102.319000 
	C79.121826,101.003807 82.529388,99.991646 85.936943,98.979485 
	C86.266098,99.441277 86.595261,99.903069 86.961456,100.654900 
	C83.255272,102.624031 79.512047,104.303116 75.383713,105.989548 
z"/>
<path fill="#021C43" opacity="1.000000" stroke="none" 
	d="
M94.213989,95.887650 
	C94.129860,95.710655 94.312973,95.458748 94.757858,95.126732 
	C94.849014,95.306671 94.669548,95.562035 94.213989,95.887650 
z"/>
<path fill="#142940" opacity="1.000000" stroke="none" 
	d="
M25.843473,73.996872 
	C25.843473,73.996872 25.426537,73.973869 25.037701,73.752716 
	C24.131577,73.335297 23.614288,73.139030 23.097000,72.942764 
	C23.055376,72.229797 23.013754,71.516823 23.232750,70.127792 
	C23.367182,65.643608 23.240992,61.835476 23.114803,58.027344 
	C23.246490,57.205952 23.378176,56.384560 24.129301,55.326118 
	C25.341534,55.191208 25.934328,55.293350 26.389826,55.726822 
	C26.782524,57.016178 27.312517,57.974201 27.927109,59.301071 
	C27.873077,60.409458 27.734451,61.148998 27.407787,61.887611 
	C26.953041,62.014294 26.847561,62.223240 26.557627,62.717373 
	C26.089121,66.613113 25.966297,70.304993 25.843473,73.996872 
z"/>
<path fill="#001E50" opacity="1.000000" stroke="none" 
	d="
M23.030527,58.334457 
	C23.240992,61.835476 23.367182,65.643608 23.221806,69.770836 
	C22.633137,67.346703 22.316031,64.603470 21.973875,61.420723 
	C22.281300,60.201328 22.613775,59.421452 23.030527,58.334457 
z"/>
<path fill="#001E50" opacity="1.000000" stroke="none" 
	d="
M24.096262,77.275955 
	C24.527657,77.535004 24.963009,78.086746 25.203960,78.820114 
	C24.706444,78.524048 24.403332,78.046356 24.096262,77.275955 
z"/>
<path fill="#001E50" opacity="1.000000" stroke="none" 
	d="
M23.098351,73.238983 
	C23.614288,73.139030 24.131577,73.335297 24.828983,73.747375 
	C24.800875,74.230453 24.592649,74.497711 24.162811,74.894806 
	C23.660702,74.528160 23.380199,74.031685 23.098351,73.238983 
z"/>
<path fill="#02204C" opacity="1.000000" stroke="none" 
	d="
M107.334061,40.825333 
	C107.150345,40.626900 107.281792,40.342598 107.746445,39.983849 
	C107.884521,40.166779 107.741043,40.443462 107.334061,40.825333 
z"/>
<path fill="#02204C" opacity="1.000000" stroke="none" 
	d="
M106.387794,42.860844 
	C106.250755,42.685772 106.380211,42.441685 106.805038,42.156384 
	C106.895454,42.317394 106.746750,42.542950 106.387794,42.860844 
z"/>
<path fill="#05204A" opacity="1.000000" stroke="none" 
	d="
M45.764687,27.400784 
	C46.028488,28.051340 46.024845,28.745230 45.872437,30.112295 
	C44.689774,31.147665 43.560928,31.349714 42.637070,31.897491 
	C35.528427,36.112377 32.256874,43.439934 27.725672,50.017311 
	C26.930161,50.018875 26.475723,50.022968 25.999161,49.728539 
	C25.956404,49.231525 25.935774,49.033031 25.915144,48.834541 
	C27.155098,46.423088 28.395052,44.011639 29.735914,41.282043 
	C34.436638,36.883362 39.036457,32.802826 43.851738,28.478256 
	C44.543880,27.970856 45.020561,27.707485 45.764687,27.400784 
z"/>
<path fill="#001E50" opacity="1.000000" stroke="none" 
	d="
M25.678249,49.068268 
	C25.935774,49.033031 25.956404,49.231525 25.996422,50.099762 
	C26.011459,51.513523 26.007111,52.257542 25.690693,53.002678 
	C24.963661,53.007042 24.548697,53.010288 24.133736,53.013535 
	C24.569609,51.776356 25.005482,50.539173 25.678249,49.068268 
z"/>
<path fill="#05204A" opacity="1.000000" stroke="none" 
	d="
M24.058931,53.344765 
	C24.548697,53.010288 24.963661,53.007042 25.737221,53.401672 
	C26.248577,54.311703 26.401335,54.823856 26.542587,55.348724 
	C26.531082,55.361435 26.527122,55.395493 26.527122,55.395493 
	C25.934328,55.293350 25.341534,55.191208 24.295944,55.058273 
	C23.890142,54.576988 23.937136,54.126492 24.058931,53.344765 
z"/>
<path fill="#02204C" opacity="1.000000" stroke="none" 
	d="
M100.208191,44.253986 
	C100.498306,43.712563 101.004074,43.398537 101.820633,43.075233 
	C102.342873,43.546753 102.554321,44.027554 102.795700,44.771339 
	C102.025040,44.850006 101.224442,44.665695 100.208191,44.253986 
z"/>
<path fill="#02204C" opacity="1.000000" stroke="none" 
	d="
M103.219559,41.913910 
	C103.108154,41.710754 103.292313,41.447399 103.762344,41.113735 
	C103.893204,41.325264 103.715508,41.595360 103.219559,41.913910 
z"/>
<path fill="#EFFBFD" opacity="1.000000" stroke="none" 
	d="
M85.599266,40.008064 
	C86.773514,40.985558 87.600235,41.952114 88.877838,43.110878 
	C89.523903,43.520344 89.767067,43.640446 90.058205,43.663399 
	C90.058205,43.663399 89.976288,43.823040 89.980560,44.238216 
	C89.981720,45.087978 89.978615,45.522568 89.975502,45.957153 
	C88.592331,46.004833 87.209152,46.052513 85.339569,45.869308 
	C84.567497,45.751228 84.281845,45.864037 83.996185,45.976845 
	C82.607491,46.021069 81.218796,46.065292 79.128250,45.794895 
	C75.948524,45.651737 73.470642,45.823196 70.992760,45.994659 
	C69.944290,46.071472 68.895828,46.148285 67.267960,45.953499 
	C58.329067,44.590969 52.212166,48.447636 48.108944,55.161530 
	C44.137707,61.659470 44.222992,68.547348 49.010368,75.300491 
	C51.310936,78.173714 53.423225,80.752068 55.223759,83.308067 
	C54.640541,83.567581 54.369080,83.849464 53.710953,84.103165 
	C52.555939,84.045128 51.787586,84.015266 51.009571,83.992851 
	C50.999908,84.000305 51.015278,83.981491 51.057411,83.619453 
	C49.755562,81.821564 48.411575,80.385704 47.033005,78.970520 
	C46.998428,78.991203 47.051975,78.930702 47.102882,78.583809 
	C46.468731,77.469803 45.783672,76.702690 45.057640,75.959900 
	C45.016674,75.984222 45.068199,75.904068 45.108196,75.555099 
	C44.196281,73.785103 43.244370,72.364059 42.200371,70.711555 
	C42.108280,70.480095 41.993359,69.995308 41.997284,69.758820 
	C41.867527,69.204460 41.631439,69.012772 41.233627,68.485741 
	C40.505470,64.196548 40.246532,63.987854 38.044662,65.578484 
	C38.008232,65.625710 38.101162,65.700493 38.397102,65.868210 
	C39.057987,65.839027 39.422935,65.642136 40.015842,65.053223 
	C40.391399,63.176682 40.539001,61.692169 40.835724,59.881012 
	C40.934235,58.356564 40.883617,57.158764 41.004395,55.643417 
	C41.830769,53.577408 42.485744,51.828945 43.095901,50.058311 
	C43.051083,50.036137 43.084957,50.130234 43.388634,49.993004 
	C44.174538,48.921974 44.656769,47.988171 45.452366,47.037819 
	C46.546768,46.414169 47.327808,45.807072 48.383251,45.104378 
	C48.916737,44.734173 49.175819,44.459560 49.695869,44.155640 
	C50.322479,43.796127 50.688122,43.465919 51.395714,43.063061 
	C53.536228,42.037159 55.334793,41.083908 57.072632,40.097492 
	C57.011902,40.064327 57.098572,40.172222 57.518360,40.157059 
	C61.920937,39.860451 65.903725,39.579006 70.199707,39.585125 
	C74.967583,39.856964 79.422264,39.841236 83.876938,39.825508 
	C84.335205,39.882721 84.793472,39.939926 85.599266,40.008064 
z"/>
<path fill="#F9FDFD" opacity="1.000000" stroke="none" 
	d="
M92.108780,49.162113 
	C95.302872,49.894367 98.496964,50.626621 101.691055,51.358871 
	C100.783142,54.309944 99.875237,57.261021 98.602989,60.714058 
	C97.100464,62.827625 95.962265,64.439232 94.406372,66.036301 
	C90.054825,66.013802 86.120964,66.005836 82.187119,65.997864 
	C80.847794,61.920944 79.508469,57.844025 78.559387,53.408333 
	C84.537445,53.049561 90.125259,53.049561 95.999268,53.049561 
	C95.573669,51.653744 95.576210,51.203587 95.373154,51.072926 
	C94.313805,50.391270 93.202202,49.790817 92.108780,49.162113 
z"/>
<path fill="#0871EC" opacity="1.000000" stroke="none" 
	d="
M78.686852,64.166328 
	C78.686852,64.166328 78.869232,64.604042 78.918411,65.199158 
	C77.364258,75.292618 70.456520,80.143562 61.332500,78.262833 
	C59.897514,77.967041 58.384541,78.049599 56.656509,77.811913 
	C55.657658,77.058083 54.909924,76.449547 54.144371,75.461761 
	C53.718460,74.201447 53.254410,73.341560 52.911503,72.435814 
	C50.929226,67.199883 50.038368,59.962234 54.876999,57.482643 
	C54.890682,59.217148 54.990364,60.559071 54.799595,61.858349 
	C53.864883,68.224472 54.469540,68.940788 61.029034,69.029671 
	C62.351143,69.047592 63.868572,68.757652 64.960861,69.293152 
	C71.109192,72.307396 74.053696,69.059189 76.463394,63.910915 
	C77.417923,64.014595 78.052391,64.090462 78.686852,64.166328 
z"/>
<path fill="#A9C4DA" opacity="1.000000" stroke="none" 
	d="
M48.822086,75.005630 
	C44.222992,68.547348 44.137707,61.659470 48.108944,55.161530 
	C52.212166,48.447636 58.329067,44.590969 66.879662,46.021828 
	C64.621101,47.572380 62.171455,48.783005 58.990070,49.996498 
	C57.247883,50.419098 56.044399,50.614758 55.256844,51.293224 
	C47.418243,58.046089 46.319984,64.419670 50.680779,74.981407 
	C49.813683,74.988708 49.317886,74.997169 48.822086,75.005630 
z"/>
<path fill="#DEEDF4" opacity="1.000000" stroke="none" 
	d="
M80.133949,72.331482 
	C80.133949,72.331482 80.579834,72.200027 80.976624,72.402832 
	C83.937691,73.417473 86.501968,74.229317 89.011566,75.397339 
	C87.210915,78.831001 85.464935,81.908485 83.396523,84.926865 
	C80.383499,85.578064 77.692917,86.288361 75.000198,86.596748 
	C74.964699,85.390289 74.931320,84.585739 74.918968,83.588707 
	C74.939995,83.396217 75.009384,83.015213 75.233345,82.923920 
	C75.756020,82.625198 75.874329,82.342331 75.979660,81.670685 
	C76.704025,79.897255 77.260971,78.437172 77.907898,76.703125 
	C78.036926,76.047684 78.075966,75.666183 78.417091,75.184937 
	C79.118835,74.389397 79.518486,73.693596 80.030754,72.850220 
	C80.143372,72.702644 80.133949,72.331482 80.133949,72.331482 
z"/>
<path fill="#F2F8FB" opacity="1.000000" stroke="none" 
	d="
M89.066246,75.041153 
	C86.501968,74.229317 83.937691,73.417473 81.188995,72.308372 
	C81.351723,70.263596 81.698875,68.516075 82.116570,66.383209 
	C86.120964,66.005836 90.054825,66.013802 94.480843,65.983719 
	C94.973007,65.945671 95.155289,65.948753 95.021103,66.282364 
	C92.946693,69.424362 91.006470,72.232758 89.066246,75.041153 
z"/>
<path fill="#031F46" opacity="1.000000" stroke="none" 
	d="
M51.052071,74.982567 
	C46.319984,64.419670 47.418243,58.046089 55.256844,51.293224 
	C56.044399,50.614758 57.247883,50.419098 58.623295,50.069107 
	C58.988251,50.138844 59.017838,50.637428 59.014679,51.260254 
	C58.917469,52.369877 58.823425,52.856674 58.418285,53.304779 
	C57.014496,54.534191 55.921799,55.802296 54.829102,57.070404 
	C50.038368,59.962234 50.929226,67.199883 52.911503,72.435814 
	C53.254410,73.341560 53.718460,74.201447 53.807186,75.500717 
	C52.675903,75.606812 51.863987,75.294693 51.052071,74.982567 
z"/>
<path fill="#011E56" opacity="1.000000" stroke="none" 
	d="
M78.114998,75.284691 
	C78.075966,75.666183 78.036926,76.047684 77.608261,76.858597 
	C74.466255,78.746178 71.844147,80.587067 68.932762,81.578186 
	C63.794647,83.327339 59.334995,81.762299 56.907627,77.957207 
	C58.384541,78.049599 59.897514,77.967041 61.332500,78.262833 
	C70.456520,80.143562 77.364258,75.292618 79.022850,65.412003 
	C79.405914,67.173721 79.733727,69.317703 80.097740,71.896584 
	C80.133949,72.331482 80.143372,72.702644 79.709740,72.927330 
	C78.889069,73.862907 78.502037,74.573799 78.114998,75.284691 
z"/>
<path fill="#9EC1DC" opacity="1.000000" stroke="none" 
	d="
M91.717743,49.200912 
	C93.202202,49.790817 94.313805,50.391270 95.373154,51.072926 
	C95.576210,51.203587 95.573669,51.653744 95.999268,53.049561 
	C90.125259,53.049561 84.537445,53.049561 78.483902,53.059639 
	C76.285835,51.927654 74.553490,50.785595 72.208603,49.239712 
	C78.999519,49.239712 85.163109,49.239712 91.717743,49.200912 
z"/>
<path fill="#DCFAFD" opacity="1.000000" stroke="none" 
	d="
M58.729378,53.343468 
	C58.823425,52.856674 58.917469,52.369877 59.034847,51.509171 
	C61.056919,51.091335 63.055458,51.025589 65.054436,51.007469 
	C71.817047,50.946171 77.215309,55.763355 78.821518,63.779366 
	C78.052391,64.090462 77.417923,64.014595 76.439926,63.529617 
	C74.393196,55.842827 69.727028,52.990791 61.698528,54.149235 
	C60.766964,54.283653 59.721848,53.631145 58.729378,53.343468 
z"/>
<path fill="#021C43" opacity="1.000000" stroke="none" 
	d="
M94.898544,65.998253 
	C95.962265,64.439232 97.100464,62.827625 98.547424,61.085426 
	C99.640854,60.961197 100.425507,60.967560 101.602310,60.958179 
	C101.994461,60.942436 102.144440,61.368221 101.788483,61.754623 
	C100.819992,62.795216 100.207451,63.449402 99.473114,64.204361 
	C99.202957,64.458733 99.081718,64.631393 98.903267,65.074821 
	C98.559715,65.556862 98.300499,65.787201 97.680344,66.010666 
	C96.598030,65.985443 95.876663,65.967102 95.155289,65.948753 
	C95.155289,65.948753 94.973007,65.945671 94.898544,65.998253 
z"/>
<path fill="#A9C4DA" opacity="1.000000" stroke="none" 
	d="
M71.413712,46.160583 
	C73.470642,45.823196 75.948524,45.651737 78.715454,45.731705 
	C76.614555,46.097595 74.224602,46.212051 71.413712,46.160583 
z"/>
<path fill="#A9C4DA" opacity="1.000000" stroke="none" 
	d="
M90.306129,46.106964 
	C89.978615,45.522568 89.981720,45.087978 89.991714,44.327232 
	C89.998604,44.001072 90.449326,43.988224 90.673050,44.016022 
	C91.509056,44.600822 92.121338,45.157818 93.025383,45.980236 
	C92.016617,46.097027 91.326691,46.176903 90.306129,46.106964 
z"/>
<path fill="#A9C4DA" opacity="1.000000" stroke="none" 
	d="
M84.246712,46.101433 
	C84.281845,45.864037 84.567497,45.751228 84.927536,45.811356 
	C84.833694,46.064865 84.665466,46.145447 84.246712,46.101433 
z"/>
<path fill="#0A46D0" opacity="1.000000" stroke="none" 
	d="
M97.162918,82.625961 
	C93.478134,87.102737 89.859932,91.233849 85.702774,95.687637 
	C83.775269,96.361572 82.386711,96.712814 80.997688,96.712265 
	C80.976822,95.892731 80.956429,95.424988 80.949112,94.661835 
	C80.697723,93.888245 80.433243,93.410072 80.082901,92.935608 
	C79.997025,92.939316 79.825348,92.930687 79.980087,92.651871 
	C80.438927,91.621696 80.743034,90.870346 81.345032,89.973007 
	C82.494354,88.579819 83.345795,87.332611 84.521179,86.044601 
	C85.950005,85.009972 87.054886,84.016159 88.382126,83.139297 
	C89.042107,83.497681 89.479736,83.739098 89.892227,84.310730 
	C89.771515,85.607452 89.675957,86.573959 89.580391,87.540466 
	C89.950874,87.710304 90.321350,87.880150 90.691833,88.049988 
	C93.484520,84.377747 96.277199,80.705513 99.069885,77.033272 
	C98.456429,78.782280 97.842957,80.531288 97.162918,82.625961 
M87.848114,89.261093 
	C87.943092,89.259430 88.038063,89.257767 87.848114,89.261093 
z"/>
<path fill="#0B65F8" opacity="1.000000" stroke="none" 
	d="
M99.289452,76.941521 
	C96.277199,80.705513 93.484520,84.377747 90.691833,88.049988 
	C90.321350,87.880150 89.950874,87.710304 89.580391,87.540466 
	C89.675957,86.573959 89.771515,85.607452 89.994614,83.980286 
	C92.988647,79.125633 98.629463,76.321053 96.920959,69.617889 
	C96.957657,69.418350 97.117821,69.045525 97.491119,69.108589 
	C98.598198,70.972244 99.331985,72.772827 100.065773,74.573418 
	C99.880188,75.332199 99.694603,76.090988 99.289452,76.941521 
z"/>
<path fill="#0F52CF" opacity="1.000000" stroke="none" 
	d="
M100.358238,74.260994 
	C99.331985,72.772827 98.598198,70.972244 97.531418,68.790222 
	C97.479385,67.611702 97.760338,66.814621 98.041283,66.017540 
	C98.300499,65.787201 98.559715,65.556862 99.074509,65.022232 
	C99.568604,64.577919 99.656876,64.373131 99.594910,64.103592 
	C100.207451,63.449402 100.819992,62.795216 101.734520,61.973793 
	C101.574570,65.853889 101.112633,69.901230 100.358238,74.260994 
z"/>
<path fill="#6894C6" opacity="1.000000" stroke="none" 
	d="
M80.998161,97.064056 
	C82.386711,96.712814 83.775269,96.361572 85.524673,95.970467 
	C86.428741,96.220757 86.971962,96.510902 87.792450,96.934586 
	C87.446938,97.524124 86.824150,97.980110 86.069153,98.707794 
	C82.529388,99.991646 79.121826,101.003807 75.422371,101.898209 
	C75.799522,100.746704 76.468575,99.712959 77.242889,98.309380 
	C77.348152,97.939552 77.737534,98.012848 78.088432,98.073105 
	C78.881973,97.963814 79.324623,97.794258 79.921005,97.788704 
	C80.382545,97.656494 80.690353,97.360275 80.998161,97.064056 
z"/>
<path fill="#EBFCFF" opacity="1.000000" stroke="none" 
	d="
M28.066748,50.019844 
	C32.256874,43.439934 35.528427,36.112377 42.637070,31.897491 
	C43.560928,31.349714 44.689774,31.147665 45.882729,30.460781 
	C56.591343,25.573784 67.375717,24.127970 78.432793,28.048929 
	C80.050903,28.622730 81.329628,30.153580 82.469093,31.615158 
	C79.137688,31.314240 76.102585,30.639757 72.846970,29.651056 
	C71.102051,29.283722 69.577637,29.230608 67.632660,29.108437 
	C65.795578,29.083725 64.379051,29.128071 62.538322,29.096689 
	C55.322151,29.435820 48.889450,30.791784 43.608513,36.107040 
	C37.798286,39.800388 33.921486,44.599319 32.001778,51.299805 
	C31.260908,53.406048 30.579416,55.153206 29.621277,57.010223 
	C28.843922,57.724136 28.343216,58.328182 27.842510,58.932228 
	C27.312517,57.974201 26.782524,57.016178 26.389826,55.726822 
	C26.527122,55.395493 26.531082,55.361435 26.738686,55.053211 
	C27.319773,53.169941 27.693260,51.594891 28.066748,50.019844 
z"/>
<path fill="#E4B950" opacity="1.000000" stroke="none" 
	d="
M96.998917,38.148968 
	C97.394508,38.950974 97.790108,39.752979 98.106056,40.794533 
	C92.292374,43.049362 90.633247,42.376461 87.026840,36.319202 
	C87.202354,34.881878 87.538292,33.763332 88.028702,32.314289 
	C88.548065,31.987680 88.912949,31.991573 89.641823,32.359146 
	C90.801208,34.511681 91.596619,36.300529 92.678528,38.733723 
	C94.085274,36.095112 95.027946,34.326958 96.538841,31.493010 
	C96.759155,34.680321 96.879036,36.414642 96.998917,38.148968 
z"/>
<path fill="#1687DB" opacity="1.000000" stroke="none" 
	d="
M62.962528,29.172417 
	C64.379051,29.128071 65.795578,29.083725 67.925232,29.327717 
	C70.114731,29.732462 71.591103,29.848869 73.067474,29.965275 
	C76.102585,30.639757 79.137688,31.314240 82.575790,31.964230 
	C83.337418,33.673168 83.696045,35.406601 83.751648,37.545860 
	C83.448631,37.951691 82.965088,37.931271 82.974518,37.561676 
	C82.256004,36.164288 81.528061,35.136490 80.421661,34.085945 
	C73.198753,31.473949 66.284477,29.548187 58.605270,31.882824 
	C57.853325,31.905945 57.422413,31.887596 57.187943,31.585808 
	C59.243767,30.592386 61.103146,29.882401 62.962528,29.172417 
z"/>
<path fill="#0C64CC" opacity="1.000000" stroke="none" 
	d="
M82.965088,37.931271 
	C82.965088,37.931271 83.448631,37.951691 83.690582,37.945843 
	C83.940544,38.359550 83.948563,38.779102 83.916756,39.512085 
	C79.422264,39.841236 74.967583,39.856964 70.244583,39.286644 
	C69.993446,38.500473 70.010628,38.300346 70.487869,38.082184 
	C74.953651,38.019863 78.959366,37.975567 82.965088,37.931271 
z"/>
<path fill="#291E03" opacity="1.000000" stroke="none" 
	d="
M97.368057,38.075401 
	C96.879036,36.414642 96.759155,34.680321 96.538841,31.493010 
	C95.027946,34.326958 94.085274,36.095112 92.678528,38.733723 
	C91.596619,36.300529 90.801208,34.511681 89.915512,32.358887 
	C92.908615,31.657547 95.992020,31.320145 99.486916,31.020279 
	C98.066719,33.026619 102.506180,36.947201 97.368057,38.075401 
z"/>
<path fill="#0F2542" opacity="1.000000" stroke="none" 
	d="
M89.939789,43.489750 
	C89.767067,43.640446 89.523903,43.520344 89.198120,43.141479 
	C89.362305,42.994450 89.613586,43.106529 89.939789,43.489750 
z"/>
<path fill="#094DD2" opacity="1.000000" stroke="none" 
	d="
M37.248993,90.907204 
	C36.054260,89.323647 34.859524,87.740082 33.718227,85.703285 
	C33.771664,85.250046 34.015610,84.961731 34.239281,84.785141 
	C34.642002,84.076920 34.821056,83.545273 35.289944,83.178085 
	C38.002762,85.591972 40.425751,87.841400 42.958092,90.413116 
	C45.272774,92.264221 47.423843,93.886497 49.737160,95.229271 
	C50.120083,95.451538 51.212303,94.451820 52.303024,94.015564 
	C53.063976,94.019913 53.498650,94.025520 54.163456,94.194519 
	C54.621967,94.862900 54.850342,95.367882 54.981346,96.226135 
	C53.606907,97.067482 52.329834,97.555557 50.690071,98.005264 
	C45.967915,95.613663 41.608452,93.260437 37.248993,90.907204 
z"/>
<path fill="#7AA9DC" opacity="1.000000" stroke="none" 
	d="
M37.153748,91.261215 
	C41.608452,93.260437 45.967915,95.613663 50.872406,98.261353 
	C52.253788,99.310349 53.090134,100.064865 53.926479,100.819389 
	C46.348423,101.334892 41.067375,97.640785 37.153748,91.261215 
z"/>
<path fill="#C5DFF1" opacity="1.000000" stroke="none" 
	d="
M25.985096,74.326591 
	C25.966297,70.304993 26.089121,66.613113 26.876989,62.993172 
	C28.306265,67.032181 29.070494,70.999252 29.628338,75.205719 
	C29.018456,76.618309 28.614960,77.791496 28.211464,78.964684 
	C27.516548,77.528557 26.821632,76.092438 25.985096,74.326591 
z"/>
<path fill="#0D44BE" opacity="1.000000" stroke="none" 
	d="
M54.163929,100.939278 
	C53.090134,100.064865 52.253788,99.310349 51.235104,98.299728 
	C52.329834,97.555557 53.606907,97.067482 55.272995,96.394661 
	C56.495651,96.457886 57.329285,96.705856 58.423660,97.041519 
	C59.107746,97.468010 59.531086,97.806824 59.968697,98.465881 
	C60.348766,99.546165 60.714558,100.306206 61.072411,101.254089 
	C61.064465,101.441933 61.028507,101.816216 61.028507,101.816216 
	C59.296181,103.081772 57.585003,104.864281 55.358803,101.964783 
	C54.822098,101.616219 54.611740,101.337692 54.163929,100.939278 
z"/>
<path fill="#A4CAEC" opacity="1.000000" stroke="none" 
	d="
M28.196430,79.313240 
	C28.614960,77.791496 29.018456,76.618309 29.729115,75.546844 
	C31.005051,77.451279 31.973825,79.253990 32.971428,81.431793 
	C33.060291,82.554031 33.120323,83.301186 33.104073,84.282898 
	C33.027782,84.517464 32.906860,84.995735 32.906860,84.995735 
	C31.331705,83.217758 29.756552,81.439774 28.196430,79.313240 
z"/>
<path fill="#094DD2" opacity="1.000000" stroke="none" 
	d="
M33.028996,85.152420 
	C32.906860,84.995735 33.027782,84.517464 33.277248,84.401649 
	C33.738178,84.476051 33.901146,84.701355 34.015610,84.961731 
	C34.015610,84.961731 33.771664,85.250046 33.631371,85.382416 
	C33.491081,85.514793 33.151131,85.309113 33.028996,85.152420 
z"/>
<path fill="#B5D3E3" opacity="1.000000" stroke="none" 
	d="
M61.411758,101.899994 
	C61.028507,101.816216 61.064465,101.441933 61.371822,101.221222 
	C61.753281,100.346687 61.827385,99.692848 62.298363,99.027565 
	C66.463493,98.677406 70.231743,98.338707 74.181992,98.163536 
	C74.363983,98.327072 74.763107,98.610199 74.763107,98.610199 
	C69.788437,105.332588 69.352684,105.445946 61.411758,101.899994 
z"/>
<path fill="#B5D3E3" opacity="1.000000" stroke="none" 
	d="
M77.737534,98.012848 
	C77.737534,98.012848 77.348152,97.939552 77.159355,97.998116 
	C76.389534,98.119217 75.808510,98.181755 74.995300,98.427246 
	C74.763107,98.610199 74.363983,98.327072 74.216980,97.846748 
	C74.379639,96.578270 74.689301,95.790115 75.266357,94.789886 
	C76.964272,94.028770 78.394814,93.479729 79.825348,92.930687 
	C79.825348,92.930687 79.997025,92.939316 79.934036,93.276215 
	C79.159866,95.079697 78.448700,96.546272 77.737534,98.012848 
z"/>
<path fill="#0C5ED9" opacity="1.000000" stroke="none" 
	d="
M32.942600,81.056709 
	C31.973825,79.253990 31.005051,77.451279 29.935499,75.307434 
	C29.070494,70.999252 28.306265,67.032181 27.222673,62.789314 
	C26.847561,62.223240 26.953041,62.014294 27.781750,61.957954 
	C28.917820,63.026703 29.491894,64.024178 30.054474,65.344925 
	C30.061268,66.099380 30.079559,66.530563 30.121140,67.342026 
	C31.084394,70.493347 32.024357,73.264374 32.968670,76.444168 
	C33.000938,78.216797 33.028862,79.580673 33.028236,80.972580 
	C32.999687,81.000618 32.942600,81.056709 32.942600,81.056709 
z"/>
<path fill="#047FFD" opacity="1.000000" stroke="none" 
	d="
M30.065968,65.021660 
	C29.491894,64.024178 28.917820,63.026703 27.969784,61.958881 
	C27.734451,61.148998 27.873077,60.409458 27.927107,59.301071 
	C28.343216,58.328182 28.843922,57.724136 29.888037,57.270901 
	C30.443939,59.961487 34.157780,62.679260 30.065968,65.021660 
z"/>
<path fill="#142940" opacity="1.000000" stroke="none" 
	d="
M27.725672,50.017311 
	C27.693260,51.594891 27.319773,53.169941 26.750191,55.040501 
	C26.401335,54.823856 26.248577,54.311703 26.049290,53.400551 
	C26.007111,52.257542 26.011459,51.513523 26.018549,50.398285 
	C26.475723,50.022968 26.930161,50.018875 27.725672,50.017311 
z"/>
<path fill="#079FF6" opacity="1.000000" stroke="none" 
	d="
M48.108849,45.199970 
	C47.327808,45.807072 46.546768,46.414169 45.099854,47.093868 
	C43.984303,48.154388 43.534630,49.142311 43.084957,50.130234 
	C43.084957,50.130234 43.051083,50.036137 42.727081,50.081116 
	C39.920589,50.411259 37.438107,50.696426 35.015232,50.626328 
	C36.977474,44.585747 40.977573,40.778492 46.461266,37.973080 
	C50.540707,36.695724 54.249786,35.413311 57.834274,34.399143 
	C57.815220,35.794899 57.920765,36.922409 57.897835,38.310951 
	C57.545761,39.105400 57.322163,39.638809 57.098572,40.172222 
	C57.098572,40.172222 57.011902,40.064327 56.689888,40.056545 
	C54.596504,41.077744 52.825134,42.106724 51.053764,43.135708 
	C50.688122,43.465919 50.322479,43.796127 49.407402,44.223824 
	C48.608261,44.614197 48.358555,44.907082 48.108849,45.199970 
z"/>
<path fill="#5F96BF" opacity="1.000000" stroke="none" 
	d="
M56.656509,77.811913 
	C59.334995,81.762299 63.794647,83.327339 68.932762,81.578186 
	C71.844147,80.587067 74.466255,78.746178 77.518280,77.132545 
	C77.260971,78.437172 76.704025,79.897255 75.803543,81.806580 
	C75.233528,82.463676 75.083321,82.716812 75.009384,83.015213 
	C75.009384,83.015213 74.939995,83.396217 74.699112,83.646652 
	C74.458229,83.897095 74.017876,84.010582 73.667389,84.056656 
	C70.176224,88.520004 66.495323,88.025253 62.478973,85.394547 
	C61.847828,84.981140 60.877941,85.084908 60.030602,84.965988 
	C59.996521,84.982430 60.046551,84.925446 60.001930,84.651016 
	C59.305958,84.246597 58.654602,84.116600 57.743271,83.926437 
	C57.136463,83.832832 56.789642,83.799377 56.073753,83.661316 
	C55.482090,83.682610 55.259495,83.808510 55.028629,83.967590 
	C55.020363,84.000763 55.079552,83.966522 55.274803,83.865753 
	C55.470055,83.764977 55.535515,83.330429 55.535515,83.330429 
	C53.423225,80.752068 51.310936,78.173714 49.010368,75.300491 
	C49.317886,74.997169 49.813683,74.988708 50.680779,74.981407 
	C51.863987,75.294693 52.675903,75.606812 53.825005,75.879974 
	C54.909924,76.449547 55.657658,77.058083 56.656509,77.811913 
z"/>
<path fill="#098FF3" opacity="1.000000" stroke="none" 
	d="
M34.955620,50.981594 
	C37.438107,50.696426 39.920589,50.411259 42.771896,50.103291 
	C42.485744,51.828945 41.830769,53.577408 40.701733,55.785141 
	C39.788242,57.466846 39.348812,58.689281 38.927326,59.921059 
	C38.945271,59.930401 38.926880,59.914070 38.666912,60.081139 
	C38.334972,60.840103 38.263000,61.431999 38.091515,62.007088 
	C37.992001,61.990280 37.791508,61.966957 37.586769,62.258369 
	C37.218266,63.727829 37.054504,64.905876 36.507805,66.059250 
	C34.115864,66.343628 32.106857,66.652687 30.097851,66.961746 
	C30.079559,66.530563 30.061268,66.099380 30.054474,65.344925 
	C34.157780,62.679260 30.443939,59.961487 30.164684,57.161034 
	C30.579416,55.153206 31.260908,53.406048 32.364059,51.314659 
	C33.509022,50.974152 34.232319,50.977875 34.955620,50.981594 
z"/>
<path fill="#031C47" opacity="1.000000" stroke="none" 
	d="
M58.162918,96.953835 
	C57.329285,96.705856 56.495651,96.457886 55.370369,96.041389 
	C54.850342,95.367882 54.621967,94.862900 54.045238,93.878632 
	C50.442738,89.290794 47.188595,85.182243 43.959026,81.043419 
	C43.983604,81.013138 43.915146,81.050529 43.842548,80.813072 
	C43.584103,80.278404 43.320824,80.088562 42.919960,79.686188 
	C42.193493,78.587914 41.527180,77.809532 40.814392,76.680634 
	C40.131107,74.321335 39.494289,72.312569 38.881050,69.990219 
	C38.657604,69.126236 38.410576,68.575836 38.084465,67.613777 
	C38.030613,66.645164 38.055851,66.088211 38.081089,65.531258 
	C40.246532,63.987854 40.505470,64.196548 41.138466,68.756081 
	C41.399532,69.657059 41.696445,69.826180 41.993359,69.995308 
	C41.993359,69.995308 42.108280,70.480095 42.095520,71.049683 
	C43.077908,73.047539 44.073051,74.475807 45.068199,75.904068 
	C45.068199,75.904068 45.016674,75.984222 45.044609,76.291252 
	C45.732353,77.375755 46.392166,78.153229 47.051975,78.930702 
	C47.051975,78.930702 46.998428,78.991203 47.080681,79.302505 
	C48.447044,81.069710 49.731163,82.525604 51.015278,83.981491 
	C51.015278,83.981491 50.999908,84.000305 51.000217,84.354202 
	C53.318230,87.839371 55.635933,90.970634 57.994167,94.457947 
	C58.077438,95.527267 58.120178,96.240555 58.162918,96.953835 
z"/>
<path fill="#0D76F3" opacity="1.000000" stroke="none" 
	d="
M38.044662,65.578484 
	C38.055851,66.088211 38.030613,66.645164 38.033764,67.928986 
	C38.327259,69.205170 38.592365,69.754478 38.857471,70.303795 
	C39.494289,72.312569 40.131107,74.321335 40.430473,76.671417 
	C39.067196,77.004990 38.041370,76.997246 37.011868,76.533180 
	C36.969040,72.745880 36.929890,69.414902 36.890739,66.083923 
	C37.054504,64.905876 37.218266,63.727829 37.669235,62.590714 
	C38.020500,63.084320 38.084568,63.536999 38.084026,64.415916 
	C38.046669,65.128265 38.073914,65.414383 38.101162,65.700493 
	C38.101162,65.700493 38.008232,65.625710 38.044662,65.578484 
z"/>
<path fill="#ACC6D9" opacity="1.000000" stroke="none" 
	d="
M57.953636,94.101898 
	C55.635933,90.970634 53.318230,87.839371 51.009880,84.346756 
	C51.787586,84.015266 52.555939,84.045128 53.958828,84.078453 
	C54.593365,84.081917 55.079552,83.966522 55.079552,83.966522 
	C55.079552,83.966522 55.020363,84.000763 54.957344,84.286270 
	C54.893456,84.789474 54.892578,85.007172 54.907829,85.571976 
	C55.948483,87.946747 56.973007,89.974419 57.989418,92.352036 
	C57.972084,93.168633 57.962860,93.635262 57.953636,94.101898 
z"/>
<path fill="#209AE1" opacity="1.000000" stroke="none" 
	d="
M57.518356,40.157059 
	C57.322163,39.638809 57.545761,39.105400 58.355225,38.302982 
	C62.615646,38.012810 66.290199,37.991646 69.980331,38.003002 
	C69.995918,38.035522 70.027809,38.100216 70.027809,38.100216 
	C70.010628,38.300346 69.993446,38.500473 69.931389,38.999077 
	C65.903725,39.579006 61.920937,39.860451 57.518356,40.157059 
z"/>
<path fill="#ACC6D9" opacity="1.000000" stroke="none" 
	d="
M51.057411,83.619453 
	C49.731163,82.525604 48.447044,81.069710 47.115257,79.281830 
	C48.411575,80.385704 49.755562,81.821564 51.057411,83.619453 
z"/>
<path fill="#ACC6D9" opacity="1.000000" stroke="none" 
	d="
M45.108192,75.555099 
	C44.073051,74.475807 43.077908,73.047539 42.187611,71.281143 
	C43.244370,72.364059 44.196281,73.785103 45.108192,75.555099 
z"/>
<path fill="#209AE1" opacity="1.000000" stroke="none" 
	d="
M51.395714,43.063061 
	C52.825134,42.106724 54.596504,41.077744 56.750618,40.089710 
	C55.334793,41.083908 53.536228,42.037159 51.395714,43.063061 
z"/>
<path fill="#062557" opacity="1.000000" stroke="none" 
	d="
M38.909386,59.911716 
	C39.348812,58.689281 39.788242,57.466846 40.530334,56.102692 
	C40.883617,57.158764 40.934235,58.356564 40.391041,59.809238 
	C39.501286,60.013313 39.205334,59.962517 38.909386,59.911716 
z"/>
<path fill="#031C47" opacity="1.000000" stroke="none" 
	d="
M38.927330,59.921059 
	C39.205334,59.962517 39.501286,60.013313 40.241920,60.135887 
	C40.539001,61.692169 40.391399,63.176682 39.689026,64.581940 
	C38.805710,64.331680 38.477173,64.160675 38.148632,63.989674 
	C38.084568,63.536999 38.020500,63.084320 37.873970,62.299301 
	C37.791508,61.966957 37.992001,61.990280 38.287094,61.792404 
	C38.697086,61.034374 38.811985,60.474220 38.926880,59.914070 
	C38.926880,59.914070 38.945271,59.930401 38.927330,59.921059 
z"/>
<path fill="#ACC6D9" opacity="1.000000" stroke="none" 
	d="
M47.102882,78.583809 
	C46.392166,78.153229 45.732353,77.375755 45.085575,76.266930 
	C45.783672,76.702690 46.468731,77.469803 47.102882,78.583809 
z"/>
<path fill="#098FF3" opacity="1.000000" stroke="none" 
	d="
M43.388634,49.993004 
	C43.534630,49.142311 43.984303,48.154388 44.786491,47.110416 
	C44.656769,47.988171 44.174538,48.921974 43.388634,49.993004 
z"/>
<path fill="#CBE7F8" opacity="1.000000" stroke="none" 
	d="
M55.274803,83.865753 
	C55.079552,83.966522 54.593365,84.081917 54.345490,84.106628 
	C54.369080,83.849464 54.640541,83.567581 55.223759,83.308067 
	C55.535515,83.330429 55.470055,83.764977 55.274803,83.865753 
z"/>
<path fill="#ACC6D9" opacity="1.000000" stroke="none" 
	d="
M41.997284,69.758820 
	C41.696445,69.826180 41.399532,69.657059 41.197777,69.217598 
	C41.631439,69.012772 41.867527,69.204460 41.997284,69.758820 
z"/>
<path fill="#209AE1" opacity="1.000000" stroke="none" 
	d="
M48.383251,45.104378 
	C48.358555,44.907082 48.608261,44.614197 49.146435,44.253128 
	C49.175819,44.459560 48.916737,44.734173 48.383251,45.104378 
z"/>
<path fill="#062557" opacity="1.000000" stroke="none" 
	d="
M38.084026,64.415916 
	C38.477173,64.160675 38.805710,64.331680 39.461067,64.973969 
	C39.422935,65.642136 39.057987,65.839027 38.397102,65.868210 
	C38.073914,65.414383 38.046669,65.128265 38.084026,64.415916 
z"/>
<path fill="#0B9BF5" opacity="1.000000" stroke="none" 
	d="
M58.418285,53.304779 
	C59.721848,53.631145 60.766964,54.283653 61.698528,54.149235 
	C69.727028,52.990791 74.393196,55.842827 76.119865,63.501808 
	C74.053696,69.059189 71.109192,72.307396 64.960861,69.293152 
	C63.868572,68.757652 62.351143,69.047592 61.029034,69.029671 
	C54.469540,68.940788 53.864883,68.224472 54.799595,61.858349 
	C54.990364,60.559071 54.890682,59.217148 54.876999,57.482643 
	C55.921799,55.802296 57.014496,54.534191 58.418285,53.304779 
z"/>
<path fill="#061F49" opacity="1.000000" stroke="none" 
	d="
M97.680344,66.010666 
	C97.760338,66.814621 97.479385,67.611702 97.158127,68.727158 
	C97.117821,69.045525 96.957657,69.418350 96.626282,69.798080 
	C93.583199,74.459320 90.871483,78.740829 88.159760,83.022346 
	C87.054886,84.016159 85.950005,85.009972 84.412651,85.764526 
	C83.893112,85.345497 83.806030,85.165733 83.718956,84.985962 
	C85.464935,81.908485 87.210915,78.831001 89.011566,75.397339 
	C91.006470,72.232758 92.946693,69.424362 95.021103,66.282364 
	C95.876663,65.967102 96.598030,65.985443 97.680344,66.010666 
z"/>
<path fill="#CAE4F3" opacity="1.000000" stroke="none" 
	d="
M74.017876,84.010582 
	C74.017876,84.010582 74.458229,83.897095 74.678085,83.839142 
	C74.931320,84.585739 74.964699,85.390289 74.877731,86.883965 
	C75.203278,88.197884 75.541046,89.213676 76.115753,89.372597 
	C77.706696,89.812538 79.396439,89.895142 81.047134,90.118988 
	C80.743034,90.870346 80.438927,91.621696 79.980087,92.651871 
	C78.394814,93.479729 76.964272,94.028770 74.964233,94.649673 
	C72.919762,93.792938 71.444801,92.864349 70.118416,91.631363 
	C71.517288,88.888176 72.767578,86.449379 74.017876,84.010582 
z"/>
<path fill="#D2E7EE" opacity="1.000000" stroke="none" 
	d="
M81.345024,89.973007 
	C79.396439,89.895142 77.706696,89.812538 76.115753,89.372597 
	C75.541046,89.213676 75.203278,88.197884 74.879860,87.285881 
	C77.692917,86.288361 80.383499,85.578064 83.396523,84.926865 
	C83.806030,85.165733 83.893112,85.345497 84.088715,85.805344 
	C83.345795,87.332611 82.494354,88.579819 81.345024,89.973007 
z"/>
<path fill="#0F2542" opacity="1.000000" stroke="none" 
	d="
M78.417091,75.184937 
	C78.502037,74.573799 78.889069,73.862907 79.597122,73.074905 
	C79.518486,73.693596 79.118835,74.389397 78.417091,75.184937 
z"/>
<path fill="#7FAED3" opacity="1.000000" stroke="none" 
	d="
M75.233345,82.923920 
	C75.083321,82.716812 75.233528,82.463676 75.636116,82.119919 
	C75.874329,82.342331 75.756020,82.625198 75.233345,82.923920 
z"/>
<path fill="#061F49" opacity="1.000000" stroke="none" 
	d="
M99.473114,64.204361 
	C99.656876,64.373131 99.568604,64.577919 99.158844,64.770538 
	C99.081718,64.631393 99.202957,64.458733 99.473114,64.204361 
z"/>
<path fill="#0B4DD6" opacity="1.000000" stroke="none" 
	d="
M88.382126,83.139297 
	C90.871483,78.740829 93.583199,74.459320 96.589584,69.997620 
	C98.629463,76.321053 92.988647,79.125633 90.019753,83.650070 
	C89.479736,83.739098 89.042107,83.497681 88.382126,83.139297 
z"/>
<path fill="#062365" opacity="1.000000" stroke="none" 
	d="
M78.088432,98.073105 
	C78.448700,96.546272 79.159866,95.079697 80.019905,93.272507 
	C80.433243,93.410072 80.697723,93.888245 80.718628,94.854416 
	C80.239136,96.103180 80.003197,96.863937 79.767258,97.624702 
	C79.324623,97.794258 78.881973,97.963814 78.088432,98.073105 
z"/>
<path fill="#1A4DB6" opacity="1.000000" stroke="none" 
	d="
M79.920998,97.788704 
	C80.003197,96.863937 80.239136,96.103180 80.705551,95.149834 
	C80.956429,95.424988 80.976822,95.892731 80.997688,96.712265 
	C80.690353,97.360275 80.382545,97.656494 79.920998,97.788704 
z"/>
<path fill="#0B65F8" opacity="1.000000" stroke="none" 
	d="
M87.990578,89.258598 
	C88.038063,89.257767 87.943092,89.259430 87.990578,89.258598 
z"/>
<path fill="#0E7FDE" opacity="1.000000" stroke="none" 
	d="
M35.015232,50.626328 
	C34.232319,50.977875 33.509022,50.974152 32.423439,50.955574 
	C33.921486,44.599319 37.798286,39.800388 43.972980,36.118973 
	C45.130177,36.003071 45.616203,36.013992 46.063988,36.347752 
	C46.047470,37.103065 46.069187,37.535542 46.090904,37.968018 
	C40.977573,40.778492 36.977474,44.585747 35.015232,50.626328 
z"/>
<path fill="#1B84D3" opacity="1.000000" stroke="none" 
	d="
M46.102226,36.024914 
	C45.616203,36.013992 45.130177,36.003071 44.279686,35.980221 
	C48.889450,30.791784 55.322151,29.435820 62.538322,29.096689 
	C61.103146,29.882401 59.243767,30.592386 56.823448,31.663980 
	C52.875751,33.358700 49.488991,34.691807 46.102226,36.024914 
z"/>
<path fill="#1B84D3" opacity="1.000000" stroke="none" 
	d="
M72.846970,29.651058 
	C71.591103,29.848869 70.114731,29.732462 68.345795,29.396774 
	C69.577637,29.230608 71.102051,29.283722 72.846970,29.651058 
z"/>
<path fill="#4BD1FF" opacity="1.000000" stroke="none" 
	d="
M58.926308,31.841354 
	C66.284477,29.548187 73.198753,31.473949 80.550591,34.347443 
	C80.114365,34.945770 79.121513,35.621948 78.237000,35.501637 
	C76.130722,35.215126 74.075645,34.552200 71.690369,33.766392 
	C67.268105,33.391239 63.155354,33.291023 59.017124,32.853134 
	C58.969868,32.290760 58.948086,32.066059 58.926308,31.841354 
z"/>
<path fill="#0D97F5" opacity="1.000000" stroke="none" 
	d="
M71.999886,34.041328 
	C74.075645,34.552200 76.130722,35.215126 78.237000,35.501637 
	C79.121513,35.621948 80.114365,34.945770 80.929047,34.370190 
	C81.528061,35.136490 82.256004,36.164288 82.974518,37.561676 
	C78.959366,37.975567 74.953651,38.019863 70.487869,38.082184 
	C70.027809,38.100216 69.995918,38.035522 70.144440,37.724987 
	C70.861938,36.290077 71.430908,35.165703 71.999886,34.041328 
z"/>
<path fill="#44CEFE" opacity="1.000000" stroke="none" 
	d="
M58.605270,31.882824 
	C58.948086,32.066059 58.969868,32.290760 58.872353,33.044708 
	C58.513157,33.794987 58.248425,33.980633 57.958870,34.130894 
	C54.249786,35.413311 50.540707,36.695724 46.461266,37.973080 
	C46.069187,37.535542 46.047470,37.103065 46.063988,36.347752 
	C49.488991,34.691807 52.875751,33.358700 56.627010,31.947418 
	C57.422413,31.887596 57.853325,31.905945 58.605270,31.882824 
z"/>
<path fill="#036CF6" opacity="1.000000" stroke="none" 
	d="
M37.015545,76.989502 
	C38.041370,76.997246 39.067196,77.004990 40.476944,77.021942 
	C41.527180,77.809532 42.193493,78.587914 42.999756,79.920288 
	C43.316784,80.775925 43.575264,80.968002 43.915146,81.050529 
	C43.915146,81.050529 43.983604,81.013138 43.963425,81.437454 
	C44.356598,84.128738 44.769951,86.395721 45.117867,88.952087 
	C44.317867,89.524597 43.583302,89.807709 42.848732,90.090820 
	C40.425751,87.841400 38.002762,85.591972 35.276794,82.853645 
	C34.953537,81.932602 34.933262,81.500458 35.152512,80.877594 
	C35.592487,80.128258 35.792938,79.569649 36.220806,78.823166 
	C36.637333,78.086700 36.826439,77.538101 37.015545,76.989502 
z"/>
<path fill="#0D44BE" opacity="1.000000" stroke="none" 
	d="
M45.183304,88.662697 
	C44.769951,86.395721 44.356598,84.128738 43.938850,81.467728 
	C47.188595,85.182243 50.442738,89.290794 53.815102,93.715233 
	C53.498650,94.025520 53.063976,94.019913 52.013885,93.839615 
	C49.326744,91.997513 47.255024,90.330109 45.183304,88.662697 
z"/>
<path fill="#0960FA" opacity="1.000000" stroke="none" 
	d="
M45.117867,88.952087 
	C47.255024,90.330109 49.326744,91.997513 51.687603,93.840874 
	C51.212303,94.451820 50.120083,95.451538 49.737160,95.229271 
	C47.423843,93.886497 45.272774,92.264221 42.958088,90.413116 
	C43.583302,89.807709 44.317867,89.524597 45.117867,88.952087 
z"/>
<path fill="#0C5ED9" opacity="1.000000" stroke="none" 
	d="
M34.912987,81.068314 
	C34.933262,81.500458 34.953537,81.932602 34.986961,82.689194 
	C34.821056,83.545273 34.642002,84.076920 34.239281,84.785141 
	C33.901146,84.701355 33.738178,84.476051 33.353539,84.167084 
	C33.120323,83.301186 33.060291,82.554031 32.971428,81.431793 
	C32.942600,81.056709 32.999687,81.000618 33.338215,80.987305 
	C34.088825,81.005432 34.500904,81.036873 34.912987,81.068314 
z"/>
<path fill="#BFD9E9" opacity="1.000000" stroke="none" 
	d="
M69.969833,91.935760 
	C71.444801,92.864349 72.919762,93.792938 74.696846,94.861748 
	C74.689301,95.790115 74.379639,96.578270 74.034988,97.683212 
	C70.231743,98.338707 66.463493,98.677406 62.028671,98.937973 
	C60.892876,98.621773 60.423649,98.383705 59.954422,98.145638 
	C59.531086,97.806824 59.107746,97.468010 58.423660,97.041519 
	C58.120178,96.240555 58.077438,95.527267 57.994171,94.457947 
	C57.962860,93.635262 57.972084,93.168633 58.343899,92.402550 
	C61.620243,94.644485 64.458237,93.654182 67.614532,91.925339 
	C68.622490,91.932922 69.296158,91.934341 69.969833,91.935760 
z"/>
<path fill="#01222C" opacity="1.000000" stroke="none" 
	d="
M59.968697,98.465881 
	C60.423649,98.383705 60.892876,98.621773 61.631798,98.949432 
	C61.827385,99.692848 61.753281,100.346687 61.379768,101.033386 
	C60.714558,100.306206 60.348766,99.546165 59.968697,98.465881 
z"/>
<path fill="#047FFD" opacity="1.000000" stroke="none" 
	d="
M37.011868,76.533188 
	C36.826439,77.538101 36.637333,78.086700 35.984131,78.601288 
	C34.668129,77.723320 33.816227,76.879364 32.964321,76.035408 
	C32.024357,73.264374 31.084394,70.493347 30.121140,67.342026 
	C32.106857,66.652687 34.115864,66.343628 36.507805,66.059250 
	C36.929890,69.414902 36.969040,72.745880 37.011868,76.533188 
z"/>
<path fill="#0D76F3" opacity="1.000000" stroke="none" 
	d="
M32.968670,76.444168 
	C33.816227,76.879364 34.668129,77.723320 35.756714,78.789154 
	C35.792938,79.569649 35.592487,80.128258 35.152512,80.877594 
	C34.500904,81.036873 34.088825,81.005432 33.366764,80.959267 
	C33.028862,79.580673 33.000938,78.216797 32.968670,76.444168 
z"/>
<path fill="#04A8FA" opacity="1.000000" stroke="none" 
	d="
M57.834274,34.399143 
	C58.248425,33.980633 58.513157,33.794987 58.897835,33.382378 
	C63.155354,33.291023 67.268105,33.391239 71.690369,33.766392 
	C71.430908,35.165703 70.861938,36.290077 70.128860,37.692467 
	C66.290199,37.991646 62.615646,38.012810 58.483704,38.041946 
	C57.920765,36.922409 57.815220,35.794899 57.834274,34.399143 
z"/>
<path fill="#CBE7F8" opacity="1.000000" stroke="none" 
	d="
M67.280258,91.919182 
	C64.458237,93.654182 61.620243,94.644485 58.352013,92.052597 
	C56.973007,89.974419 55.948483,87.946747 55.177399,85.338120 
	C55.768166,84.426743 56.105495,84.096336 56.442818,83.765930 
	C56.789642,83.799377 57.136463,83.832832 57.900848,84.185944 
	C58.894455,84.645554 59.470505,84.785500 60.046551,84.925446 
	C60.046551,84.925446 59.996521,84.982430 60.147568,85.281464 
	C62.625832,87.693382 64.953049,89.806282 67.280258,91.919182 
z"/>
<path fill="#7FAED3" opacity="1.000000" stroke="none" 
	d="
M67.614532,91.925339 
	C64.953049,89.806282 62.625832,87.693382 60.181652,85.265015 
	C60.877941,85.084908 61.847828,84.981140 62.478973,85.394547 
	C66.495323,88.025253 70.176224,88.520004 73.667389,84.056656 
	C72.767578,86.449379 71.517288,88.888176 70.118416,91.631363 
	C69.296158,91.934341 68.622490,91.932922 67.614532,91.925339 
z"/>
<path fill="#7FAED3" opacity="1.000000" stroke="none" 
	d="
M60.001930,84.651016 
	C59.470505,84.785500 58.894455,84.645554 58.160828,84.246109 
	C58.654602,84.116600 59.305958,84.246597 60.001930,84.651016 
z"/>
<path fill="#EFFBFD" opacity="1.000000" stroke="none" 
	d="
M56.073753,83.661324 
	C56.105495,84.096336 55.768166,84.426743 55.161270,84.991013 
	C54.892578,85.007172 54.893456,84.789474 54.965614,84.253090 
	C55.259495,83.808510 55.482090,83.682610 56.073753,83.661324 
z"/>
<path fill="#062557" opacity="1.000000" stroke="none" 
	d="
M38.666912,60.081139 
	C38.811985,60.474220 38.697086,61.034374 38.386612,61.809212 
	C38.263000,61.431999 38.334972,60.840103 38.666912,60.081139 
z"/>
<path fill="#062557" opacity="1.000000" stroke="none" 
	d="
M38.881050,69.990219 
	C38.592365,69.754478 38.327259,69.205170 38.112854,68.340645 
	C38.410576,68.575836 38.657604,69.126236 38.881050,69.990219 
z"/>
<path fill="#0D44BE" opacity="1.000000" stroke="none" 
	d="
M43.842548,80.813072 
	C43.575264,80.968002 43.316784,80.775925 43.059906,80.240189 
	C43.320824,80.088562 43.584103,80.278404 43.842548,80.813072 
z"/>
</svg>